<?xml version="1.0" encoding="utf-8"?>
<!-- Generator: Adobe Illustrator 21.0.0, SVG Export Plug-In . SVG Version: 6.00 Build 0)  -->
<svg version="1.1" id="图层_1" xmlns="http://www.w3.org/2000/svg" xmlns:xlink="http://www.w3.org/1999/xlink" x="0px" y="0px"
	 viewBox="0 0 512 512" style="enable-background:new 0 0 512 512;" xml:space="preserve">
<style type="text/css">
	.st0{display:none;fill:#FFFFFF;}
	.st1{fill:#314A5E;}
	.st2{fill:#D7D5D8;}
	.st3{fill:#FFFFFF;}
	.st4{fill:#1C71A7;}
	.st5{fill:#E83E8C;}
	.st6{fill:#007BFF;}
	.st7{fill:#DC3545;}
	.st8{fill:#F6E2A7;}
	.st9{fill:#FD7E14;}
	.st10{fill:#6610F2;}
	.st11{fill:#28A745;}
	.st12{fill:#17A2B8;}
	.st13{fill:#FFC107;}
	.st14{fill:#6ACAF9;}
</style>
<circle class="st0" cx="256" cy="256" r="306"/>
<g>
	<path class="st1" d="M450.3,359.4c-9-2.2-17.4-4.1-25.7-6.4c-38.5-10.3-76.4-6.9-114.2,4.2c-19.1,5.6-38.4,10.8-58.5,12.2
		c-21.2,1.5-41.8-1.6-62.6-4.9c-21.3-3.4-42.6-7.2-64.1-9.5c-17.3-1.9-34.5,1.7-52,5.8c-2.8-8.3-5.6-16.4-8.2-24.5
		c-6.8-21.2-13.2-42.6-20.6-63.6c-3.7-10.5,2.6-19.9,14.4-19.9c134.6,0.2,269.2,0.1,403.8,0.1c12,0,16.8,6.2,13.4,17.8
		C467.8,300.1,459.1,329.4,450.3,359.4z"/>
	<polygon class="st2" points="450.2,113.1 324.9,112.8 324.9,149.2 307.3,149.2 307.3,169.3 325.2,169.3 325.2,210.5 362.3,210.5 
		362.3,252.9 450.5,252.9 450.5,169.1 468.3,169.1 468.3,149 450.2,149 	"/>
	<path class="st3" d="M349.1,125.1c9.9,0,9.9,0,9.9,11.8c0,7.7-0.4,8.1-9.8,8.1c-9.7,0-10.2-0.3-10.2-7.8
		C339,125.1,339,125.1,349.1,125.1z"/>
	<path class="st3" d="M389.1,125.1c9.9,0,9.9,0,9.9,11.8c0,7.7-0.4,8.1-9.8,8.1c-9.7,0-10.2-0.3-10.2-7.8
		C379,125.1,379,125.1,389.1,125.1z"/>
	<path class="st3" d="M428.8,125.1c9.9,0,9.9,0,9.9,11.8c0,7.7-0.4,8.1-9.8,8.1c-9.7,0-10.2-0.3-10.2-7.8
		C418.7,125.1,418.7,125.1,428.8,125.1z"/>
	<rect x="395.7" y="58.6" class="st4" width="18.5" height="54.3"/>
	<rect x="395.7" y="67.6" class="st2" width="18.5" height="6.7"/>
	<rect x="395.7" y="84.6" class="st2" width="18.5" height="6.7"/>
</g>
<rect x="80.1" y="205.1" class="st5" width="72" height="47.7"/>
<rect x="80.1" y="157.5" class="st6" width="72" height="47.7"/>
<rect x="80.1" y="109.8" class="st7" width="72" height="47.7"/>
<rect x="151.9" y="205.1" class="st8" width="72" height="47.7"/>
<rect x="151.9" y="157.5" class="st9" width="72" height="47.7"/>
<rect x="151.9" y="109.8" class="st10" width="72" height="47.7"/>
<rect x="223.9" y="205.1" class="st11" width="72" height="47.7"/>
<rect x="223.9" y="157.5" class="st12" width="72" height="47.7"/>
<rect x="223.9" y="109.8" class="st13" width="72" height="47.7"/>
<path class="st14" d="M129.5,352.8c9.8,1.6,28.6,4.4,47.5,7.7c26.1,4.6,52.3,9.8,78.9,6.4c17.6-2.3,34.8-6.8,52.2-10.5
	c18.1-3.8,36-8.5,54.2-11.2c21.1-3.2,41.9,1.1,62.3,6.2c18.8,4.8,37.4,10.7,55.8,17c18.6,6.3,16.4,26.9,8.4,35.6
	c-4.9,5.3-11,5.6-17.5,3.3c-11.9-4.2-23.7-8.9-35.9-12.3c-14.4-4-29-7.5-43.7-10c-19.1-3.2-37.7,1.5-56.1,6.4
	c-25.9,6.9-51.9,13.4-78.7,15.7c-22.8,2-45.2,0.1-67.6-3.8c-14.3-2.5-28.5-5.2-42.7-7.7c-23.6-4.1-46.8-1.8-69.7,4.6
	c-11.7,3.3-23.3,6.7-34.8,10.7c-12.1,4.2-19.3-1.1-22.8-9.6c-4.6-11.2-0.9-23.3,9.1-27.3c11.4-4.6,23.2-8.1,35-11.8
	C81.8,356.6,100.6,352.5,129.5,352.8z"/>
</svg>
